<mxfile host="app.diagrams.net" agent="Mozilla/5.0 (Windows NT 10.0; Win64; x64) AppleWebKit/537.36 (KHTML, like Gecko) Chrome/132.0.0.0 Safari/537.36" version="26.0.7">
  <diagram id="C5RBs43oDa-KdzZeNtuy" name="Page-1">
    <mxGraphModel dx="880" dy="508" grid="1" gridSize="10" guides="1" tooltips="1" connect="1" arrows="1" fold="1" page="1" pageScale="1" pageWidth="827" pageHeight="1169" math="0" shadow="0">
      <root>
        <mxCell id="WIyWlLk6GJQsqaUBKTNV-0" />
        <mxCell id="WIyWlLk6GJQsqaUBKTNV-1" parent="WIyWlLk6GJQsqaUBKTNV-0" />
        <mxCell id="HjW64ZXoG3mXL9OIz0-m-5" value="" style="edgeStyle=orthogonalEdgeStyle;rounded=0;orthogonalLoop=1;jettySize=auto;html=1;" edge="1" parent="WIyWlLk6GJQsqaUBKTNV-1" source="HjW64ZXoG3mXL9OIz0-m-2" target="HjW64ZXoG3mXL9OIz0-m-4">
          <mxGeometry relative="1" as="geometry" />
        </mxCell>
        <mxCell id="HjW64ZXoG3mXL9OIz0-m-32" value="" style="edgeStyle=orthogonalEdgeStyle;rounded=0;orthogonalLoop=1;jettySize=auto;html=1;" edge="1" parent="WIyWlLk6GJQsqaUBKTNV-1" source="HjW64ZXoG3mXL9OIz0-m-2" target="HjW64ZXoG3mXL9OIz0-m-31">
          <mxGeometry relative="1" as="geometry" />
        </mxCell>
        <mxCell id="HjW64ZXoG3mXL9OIz0-m-2" value="view product" style="rounded=1;whiteSpace=wrap;html=1;" vertex="1" parent="WIyWlLk6GJQsqaUBKTNV-1">
          <mxGeometry x="336.25" y="180" width="122.5" height="40" as="geometry" />
        </mxCell>
        <mxCell id="HjW64ZXoG3mXL9OIz0-m-7" value="" style="edgeStyle=orthogonalEdgeStyle;rounded=0;orthogonalLoop=1;jettySize=auto;html=1;" edge="1" parent="WIyWlLk6GJQsqaUBKTNV-1" source="HjW64ZXoG3mXL9OIz0-m-4" target="HjW64ZXoG3mXL9OIz0-m-6">
          <mxGeometry relative="1" as="geometry" />
        </mxCell>
        <mxCell id="HjW64ZXoG3mXL9OIz0-m-4" value="Check Reviews" style="rounded=1;whiteSpace=wrap;html=1;" vertex="1" parent="WIyWlLk6GJQsqaUBKTNV-1">
          <mxGeometry x="336.25" y="250" width="123.75" height="40" as="geometry" />
        </mxCell>
        <mxCell id="HjW64ZXoG3mXL9OIz0-m-16" value="" style="edgeStyle=orthogonalEdgeStyle;rounded=0;orthogonalLoop=1;jettySize=auto;html=1;" edge="1" parent="WIyWlLk6GJQsqaUBKTNV-1" source="HjW64ZXoG3mXL9OIz0-m-6" target="HjW64ZXoG3mXL9OIz0-m-8">
          <mxGeometry relative="1" as="geometry" />
        </mxCell>
        <mxCell id="HjW64ZXoG3mXL9OIz0-m-6" value="" style="rhombus;whiteSpace=wrap;html=1;" vertex="1" parent="WIyWlLk6GJQsqaUBKTNV-1">
          <mxGeometry x="372" y="323" width="53.33" height="40" as="geometry" />
        </mxCell>
        <mxCell id="HjW64ZXoG3mXL9OIz0-m-27" value="" style="edgeStyle=orthogonalEdgeStyle;rounded=0;orthogonalLoop=1;jettySize=auto;html=1;" edge="1" parent="WIyWlLk6GJQsqaUBKTNV-1" source="HjW64ZXoG3mXL9OIz0-m-8" target="HjW64ZXoG3mXL9OIz0-m-25">
          <mxGeometry relative="1" as="geometry" />
        </mxCell>
        <mxCell id="HjW64ZXoG3mXL9OIz0-m-8" value="Add to Cart" style="rounded=1;whiteSpace=wrap;html=1;" vertex="1" parent="WIyWlLk6GJQsqaUBKTNV-1">
          <mxGeometry x="337.5" y="415" width="122.5" height="35" as="geometry" />
        </mxCell>
        <mxCell id="HjW64ZXoG3mXL9OIz0-m-10" value="" style="endArrow=classic;html=1;rounded=0;exitX=0;exitY=0.5;exitDx=0;exitDy=0;" edge="1" parent="WIyWlLk6GJQsqaUBKTNV-1">
          <mxGeometry relative="1" as="geometry">
            <mxPoint x="372" y="343" as="sourcePoint" />
            <mxPoint x="330" y="200" as="targetPoint" />
            <Array as="points">
              <mxPoint x="280" y="343" />
              <mxPoint x="280" y="200" />
            </Array>
          </mxGeometry>
        </mxCell>
        <mxCell id="HjW64ZXoG3mXL9OIz0-m-17" value="Bad Reviews" style="text;html=1;align=center;verticalAlign=middle;whiteSpace=wrap;rounded=0;" vertex="1" parent="WIyWlLk6GJQsqaUBKTNV-1">
          <mxGeometry x="290" y="310" width="60" height="30" as="geometry" />
        </mxCell>
        <mxCell id="HjW64ZXoG3mXL9OIz0-m-18" value="Good Reviews" style="text;html=1;align=center;verticalAlign=middle;whiteSpace=wrap;rounded=0;" vertex="1" parent="WIyWlLk6GJQsqaUBKTNV-1">
          <mxGeometry x="405" y="370" width="60" height="30" as="geometry" />
        </mxCell>
        <mxCell id="HjW64ZXoG3mXL9OIz0-m-30" value="" style="edgeStyle=orthogonalEdgeStyle;rounded=0;orthogonalLoop=1;jettySize=auto;html=1;" edge="1" parent="WIyWlLk6GJQsqaUBKTNV-1" source="HjW64ZXoG3mXL9OIz0-m-19" target="HjW64ZXoG3mXL9OIz0-m-29">
          <mxGeometry relative="1" as="geometry" />
        </mxCell>
        <mxCell id="HjW64ZXoG3mXL9OIz0-m-19" value="Checkout" style="whiteSpace=wrap;html=1;rounded=1;" vertex="1" parent="WIyWlLk6GJQsqaUBKTNV-1">
          <mxGeometry x="338.75" y="550" width="121.25" height="40" as="geometry" />
        </mxCell>
        <mxCell id="HjW64ZXoG3mXL9OIz0-m-21" value="" style="endArrow=classic;html=1;rounded=0;exitX=1;exitY=0.5;exitDx=0;exitDy=0;" edge="1" parent="WIyWlLk6GJQsqaUBKTNV-1" source="HjW64ZXoG3mXL9OIz0-m-25">
          <mxGeometry width="50" height="50" relative="1" as="geometry">
            <mxPoint x="500" y="440" as="sourcePoint" />
            <mxPoint x="460" y="200" as="targetPoint" />
            <Array as="points">
              <mxPoint x="520" y="500" />
              <mxPoint x="520" y="433" />
              <mxPoint x="520" y="200" />
            </Array>
          </mxGeometry>
        </mxCell>
        <mxCell id="HjW64ZXoG3mXL9OIz0-m-22" value="Decision Changed" style="text;html=1;align=center;verticalAlign=middle;whiteSpace=wrap;rounded=0;" vertex="1" parent="WIyWlLk6GJQsqaUBKTNV-1">
          <mxGeometry x="420" y="500" width="120" height="30" as="geometry" />
        </mxCell>
        <mxCell id="HjW64ZXoG3mXL9OIz0-m-28" value="" style="edgeStyle=orthogonalEdgeStyle;rounded=0;orthogonalLoop=1;jettySize=auto;html=1;" edge="1" parent="WIyWlLk6GJQsqaUBKTNV-1" source="HjW64ZXoG3mXL9OIz0-m-25" target="HjW64ZXoG3mXL9OIz0-m-19">
          <mxGeometry relative="1" as="geometry" />
        </mxCell>
        <mxCell id="HjW64ZXoG3mXL9OIz0-m-25" value="" style="rhombus;whiteSpace=wrap;html=1;" vertex="1" parent="WIyWlLk6GJQsqaUBKTNV-1">
          <mxGeometry x="378.66" y="480" width="40" height="40" as="geometry" />
        </mxCell>
        <mxCell id="HjW64ZXoG3mXL9OIz0-m-29" value="" style="shape=waypoint;sketch=0;size=6;pointerEvents=1;points=[];fillColor=default;resizable=0;rotatable=0;perimeter=centerPerimeter;snapToPoint=1;rounded=1;" vertex="1" parent="WIyWlLk6GJQsqaUBKTNV-1">
          <mxGeometry x="389.375" y="680" width="20" height="20" as="geometry" />
        </mxCell>
        <mxCell id="HjW64ZXoG3mXL9OIz0-m-31" value="" style="shape=waypoint;sketch=0;size=6;pointerEvents=1;points=[];fillColor=default;resizable=0;rotatable=0;perimeter=centerPerimeter;snapToPoint=1;rounded=1;" vertex="1" parent="WIyWlLk6GJQsqaUBKTNV-1">
          <mxGeometry x="387.5" y="70" width="20" height="20" as="geometry" />
        </mxCell>
      </root>
    </mxGraphModel>
  </diagram>
</mxfile>
